<svg xmlns="http://www.w3.org/2000/svg" version="1.1" xmlns:xlink="http://www.w3.org/1999/xlink" xmlns:svgjs="http://svgjs.dev/svgjs" width="1440" height="560" preserveAspectRatio="none" viewBox="0 0 1440 560"><g mask="url(&quot;#SvgjsMask1111&quot;)" fill="none"><rect width="1440" height="560" x="0" y="0" fill="rgba(76, 153, 232, 1)"></rect><path d="M 0,80 C 15.2,143.8 45.6,365.6 76,399 C 106.4,432.4 121.6,231.8 152,247 C 182.4,262.2 197.6,494.4 228,475 C 258.4,455.6 273.6,174.2 304,150 C 334.4,125.8 349.6,383.8 380,354 C 410.4,324.2 425.6,-14.6 456,1 C 486.4,16.6 501.6,416.4 532,432 C 562.4,447.6 577.6,79.4 608,79 C 638.4,78.6 653.6,411.6 684,430 C 714.4,448.4 729.6,189.2 760,171 C 790.4,152.8 805.6,329.2 836,339 C 866.4,348.8 881.6,212.4 912,220 C 942.4,227.6 957.6,414.2 988,377 C 1018.4,339.8 1033.6,17.2 1064,34 C 1094.4,50.8 1109.6,423.8 1140,461 C 1170.4,498.2 1185.6,235.8 1216,220 C 1246.4,204.2 1261.6,381.4 1292,382 C 1322.4,382.6 1338.4,204.2 1368,223 C 1397.6,241.8 1425.6,425.4 1440,476L1440 560L0 560z" fill="rgba(57, 199, 29, 1)"></path><path d="M 0,121 C 57.6,162 172.8,306 288,326 C 403.2,346 460.8,209 576,221 C 691.2,233 748.8,395.2 864,386 C 979.2,376.8 1036.8,140.4 1152,175 C 1267.2,209.6 1382.4,482.2 1440,559L1440 560L0 560z" fill="rgba(218, 134, 16, 1)"></path></g><defs><mask id="SvgjsMask1111"><rect width="1440" height="560" fill="#ffffff"></rect></mask></defs></svg>